<?xml version="1.0" encoding="UTF-8"?>
<svg width="32" height="32" viewBox="0 0 32 32" fill="none" xmlns="http://www.w3.org/2000/svg">
  <!-- Background circle -->
  <circle cx="16" cy="16" r="16" fill="#7C3AED"/>
  <!-- Music note -->
  <path d="M22 10.5L14 12.5V21.5C14 23.1569 12.6569 24.5 11 24.5C9.34315 24.5 8 23.1569 8 21.5C8 19.8431 9.34315 18.5 11 18.5C11.7403 18.5 12.4158 18.7775 12.9445 19.2445L13 12.5V8.5L24 6V17.5C24 19.1569 22.6569 20.5 21 20.5C19.3431 20.5 18 19.1569 18 17.5C18 15.8431 19.3431 14.5 21 14.5C21.7403 14.5 22.4158 14.7775 22.9445 15.2445V10.5Z" fill="white"/>
</svg> 